<svg width="30" height="30" viewBox="0 0 30 30" fill="none" xmlns="http://www.w3.org/2000/svg">
<path fill-rule="evenodd" clip-rule="evenodd" d="M17.9962 2.98339C18.382 2.59753 18.9563 2.46974 19.4693 2.65554C24.5157 4.48297 28.125 9.31796 28.125 14.9995C28.125 22.2483 22.2487 28.1245 15 28.1245C9.31842 28.1245 4.48343 24.5152 2.656 19.4689C2.4702 18.9558 2.59799 18.3816 2.98385 17.9957C3.36971 17.6098 3.94396 17.482 4.45704 17.6678C5.55127 18.0641 6.73314 18.2808 7.96875 18.2808C13.6642 18.2808 18.2812 13.6637 18.2812 7.96829C18.2812 6.73269 18.0646 5.55081 17.6683 4.45658C17.4825 3.9435 17.6103 3.36925 17.9962 2.98339ZM21.0262 6.62966C21.0709 7.07003 21.0937 7.51662 21.0937 7.96829C21.0937 15.217 15.2175 21.0933 7.96875 21.0933C7.51708 21.0933 7.07049 21.0704 6.63013 21.0258C8.50352 23.6229 11.5556 25.312 15 25.312C20.6954 25.312 25.3125 20.695 25.3125 14.9995C25.3125 11.5551 23.6234 8.50305 21.0262 6.62966Z" fill="#14181F"/>
</svg>
