<svg width="100" height="100" viewBox="0 0 100 100" fill="none" xmlns="http://www.w3.org/2000/svg">
<path d="M83.3333 83.3333L83.3333 16.6667C83.3333 14.3655 81.4678 12.5 79.1667 12.5L66.6667 12.5C64.3655 12.5 62.5 14.3655 62.5 16.6667L62.5 83.3333C62.5 85.6345 64.3655 87.5 66.6667 87.5H79.1667C81.4678 87.5 83.3333 85.6345 83.3333 83.3333Z" fill="#14181F" stroke="#14181F" stroke-width="2" stroke-linecap="round" stroke-linejoin="round"/>
<path d="M37.5 83.3333L37.5 16.6667C37.5 14.3655 35.6345 12.5 33.3333 12.5L20.8333 12.5C18.5321 12.5 16.6667 14.3655 16.6667 16.6667L16.6667 83.3333C16.6667 85.6345 18.5321 87.5 20.8333 87.5H33.3333C35.6345 87.5 37.5 85.6345 37.5 83.3333Z" fill="#14181F" stroke="#14181F" stroke-width="2" stroke-linecap="round" stroke-linejoin="round"/>
</svg>
